<svg width="34" height="32" viewBox="0 0 34 32" fill="none" xmlns="http://www.w3.org/2000/svg">
<path d="M5.36761 21.3333H3.91174C2.31028 21.3333 1 19.9619 1 18.2857V15.3447C1 14.3238 1.48044 13.379 2.29572 12.8152L5.36761 10.6666L7.42039 8.51807C7.97362 7.93902 8.70156 7.61902 9.47317 7.61902H20.1592C20.9309 7.61902 21.6734 7.93902 22.212 8.51807L27.1765 13.7143L30.8016 14.659C32.0974 14.9943 33 16.2133 33 17.6152V19.8095C33 20.6476 32.3449 21.3333 31.5441 21.3333H30.0883" stroke="#CCDFE9" stroke-width="2" stroke-linecap="round" stroke-linejoin="round"/>
<path d="M20.1867 22C20.1867 23.4912 18.9779 24.7 17.4867 24.7C15.9955 24.7 14.7867 23.4912 14.7867 22C14.7867 20.5088 15.9955 19.3 17.4867 19.3C18.9779 19.3 20.1867 20.5088 20.1867 22Z" stroke="#CCDFE9" stroke-width="2" stroke-linecap="round" stroke-linejoin="round"/>
<path d="M19.697 14.2308C19.452 13.4958 18.7641 13 17.9893 13H16.9841C16.2093 13 15.5214 13.4958 15.2764 14.2308L14.9311 15.2667C14.2018 15.5437 13.5292 15.9357 12.9354 16.4207L11.8635 16.2013C11.1044 16.046 10.3311 16.3938 9.94376 17.0648L9.44113 17.9354C9.05374 18.6063 9.13917 19.4499 9.65321 20.0296L10.3784 20.8475C10.3181 21.2227 10.2867 21.6077 10.2867 22C10.2867 22.3923 10.3181 22.7773 10.3784 23.1525L9.65321 23.9704C9.13917 24.5501 9.05374 25.3937 9.44113 26.0646L9.94376 26.9352C10.3311 27.6062 11.1044 27.954 11.8635 27.7987L12.9354 27.5793C13.5292 28.0643 14.2018 28.4563 14.9311 28.7333L15.2764 29.7692C15.5214 30.5042 16.2093 31 16.9841 31H17.9893C18.7641 31 19.452 30.5042 19.697 29.7692L20.0423 28.7333C20.7715 28.4563 21.4441 28.0643 22.0379 27.5794L23.1099 27.7988C23.869 27.9541 24.6422 27.6063 25.0296 26.9354L25.5323 26.0648C25.9196 25.3938 25.8342 24.5502 25.3202 23.9705L24.5949 23.1526C24.6553 22.7773 24.6867 22.3923 24.6867 22C24.6867 21.6077 24.6553 21.2227 24.5949 20.8475L25.3202 20.0296C25.8342 19.4499 25.9196 18.6063 25.5323 17.9354L25.0296 17.0648C24.6422 16.3938 23.869 16.046 23.1099 16.2013L22.038 16.4207C21.4442 15.9357 20.7716 15.5437 20.0423 15.2667L19.697 14.2308Z" stroke="#CCDFE9" stroke-width="2" stroke-linecap="round" stroke-linejoin="round"/>
</svg>
